/vscmnt/brussel_pixiu_data/_data_brussel/112/vsc11236/PredSimResults/SUBJ09mtu3D/worker4.mot
version=1
nRows=4
nColumns=50
inDegrees=yes
endheader
                time	         pelvis_tilt	         pelvis_list	     pelvis_rotation	           pelvis_tx	           pelvis_ty	           pelvis_tz	       hip_flexion_r	     hip_adduction_r	      hip_rotation_r	        knee_angle_r	       ankle_angle_r	         mtp_angle_r	       hip_flexion_l	     hip_adduction_l	      hip_rotation_l	        knee_angle_l	       ankle_angle_l	         mtp_angle_l	    lumbar_extension	      lumbar_bending	     lumbar_rotation	 ercspn_r/activation	 intobl_r/activation	 extobl_r/activation	    abd_r/activation	    add_r/activation	hamstrings_r/activation	bifemsh_r/activation	glut_max_r/activation	iliopsoas_r/activation	rect_fem_r/activation	  vasti_r/activation	gastroc_r/activation	 soleus_r/activation	tib_ant_r/activation	 ercspn_l/activation	 intobl_l/activation	 extobl_l/activation	    abd_l/activation	    add_l/activation	hamstrings_l/activation	bifemsh_l/activation	glut_max_l/activation	iliopsoas_l/activation	rect_fem_l/activation	  vasti_l/activation	gastroc_l/activation	 soleus_l/activation	tib_ant_l/activation	
          0.00000000	          3.83478224	         -1.78007347	        -12.84426346	          0.00000000	          1.05744876	         -0.03720699	        -23.16376864	         -0.94781911	        -28.20370141	        -22.43490525	        -21.44578607	         11.24131546	         20.90460645	         13.62368864	         26.99764610	        -43.62488228	         -5.89338108	         -0.04018921	         -9.92875495	         12.84411572	          2.26787835	          0.86313000	          0.02478284	          0.01845451	          0.02943167	          0.17534035	          0.01002924	          0.69957580	          0.01001052	          0.99994824	          0.99979462	          0.07081341	          0.03128546	          0.01421048	          0.41128402	          0.86925875	          0.81092821	          0.22301247	          0.23902543	          0.07914902	          0.01043282	          0.36151270	          0.06769808	          0.99997437	          0.99965114	          0.20441337	          0.01001766	          0.01000117	          0.99868573	
          0.01072514	          3.84590780	         -2.06549929	        -13.35620505	          0.01651604	          1.04639175	         -0.03434337	        -24.48208496	         -0.72470107	        -28.93797858	        -22.57795815	        -19.51689222	         10.40100965	         20.52773370	         13.23289632	         27.00439283	        -44.78744206	         -4.06276763	          1.23913086	         -9.53962940	         12.68555259	          2.77384916	          0.73224325	          0.02103199	          0.01571586	          0.02497183	          0.51913599	          0.01004536	          0.59352400	          0.01001181	          0.97009175	          0.99078080	          0.11550294	          0.02670700	          0.01207177	          0.34895774	          0.73744333	          0.88972660	          0.18922667	          0.20278240	          0.06718200	          0.01007964	          0.30672129	          0.05743663	          0.99948436	          0.99664061	          0.53609840	          0.02269395	          0.16310764	          0.84724742	
          0.02145028	          3.85356713	         -2.56842377	        -13.76753967	          0.03414418	          1.03506763	         -0.03105689	        -26.00465474	         -0.05400224	        -29.07349785	        -22.06943686	        -18.40931259	          9.78905025	         19.39157475	         12.79546172	         27.02007004	        -46.16844198	         -0.98545626	          5.35764789	         -8.95373540	         12.71739711	          3.35585214	          0.62120492	          0.01931355	          0.13801148	          0.02118882	          0.71960643	          0.06011951	          0.50355572	          0.08764507	          0.98160918	          0.89013015	          0.15517431	          0.02279988	          0.01039381	          0.47070984	          0.62561820	          0.89977881	          0.18597836	          0.17203626	          0.45585336	          0.01033291	          0.26028518	          0.04873054	          0.99969183	          0.99785787	          0.64760270	          0.01928252	          0.13840047	          0.71878060	
          0.03217541	          3.85355389	         -3.15286056	        -14.01788862	          0.05221597	          1.02384654	         -0.02725194	        -27.72558766	          0.86471533	        -29.06710083	        -21.12918502	        -17.35322501	          8.95758774	         17.53322871	         11.88621466	         26.96300091	        -46.44939595	          2.62070200	         10.68836944	         -8.23371139	         12.74914184	          3.94891865	          0.52700437	          0.01639127	          0.49709336	          0.01798071	          0.75217842	          0.05108945	          0.42722694	          0.07439118	          0.83288959	          0.84269867	          0.15299063	          0.01946884	          0.01004402	          0.49510464	          0.53075041	          0.94155653	          0.32146897	          0.14595526	          0.38684798	          0.01039879	          0.22095526	          0.04135144	          0.99980740	          0.99829824	          0.54941242	          0.01637683	          0.11741553	          0.70985401	
